<svg xmlns="http://www.w3.org/2000/svg" width="128" height="160" viewBox="0 0 64 80" shape-rendering="crispEdges" style="image-rendering:pixelated">
<!-- 64x80, 8-color palette: outline #584b40, wood #b58d68, light #dcc3a0, cream #f4ecd9, screen #496357, sage #aaba92, red #a44b40, gold #d4ad5d. Integer rects; no filtering. -->
<g fill="#584b40"><path d="M14 4H50V8H54V70H50V74H14V70H10V8H14Z"/><rect x="8" y="76" width="48" height="2"/></g>
<path fill="#b58d68" d="M14 8H50V68H46V70H14Z"/>
<path fill="#dcc3a0" d="M14 8H48V12H50V50H14Z"/>
<rect x="18" y="10" width="26" height="2" fill="#f4ecd9"/>
<rect x="16" y="16" width="32" height="30" fill="#584b40"/>
<rect x="18" y="18" width="28" height="26" fill="#496357"/>
<g fill="#aaba92"><rect x="20" y="20" width="2" height="2"/><rect x="24" y="20" width="6" height="2"/><rect x="22" y="27" width="9" height="12"/><rect x="33" y="27" width="9" height="12"/><rect x="31" y="29" width="2" height="12"/></g>
<g fill="#f4ecd9"><rect x="23" y="26" width="7" height="10"/><rect x="34" y="26" width="7" height="10"/></g>
<g fill="#496357"><rect x="24" y="29" width="4" height="1"/><rect x="24" y="32" width="4" height="1"/><rect x="35" y="29" width="4" height="1"/><rect x="35" y="32" width="4" height="1"/></g>
<path fill="#584b40" d="M21 50H25V54H29V58H25V62H21V58H17V54H21Z"/>
<rect x="21" y="52" width="2" height="4" fill="#f4ecd9"/>
<g fill="#584b40"><rect x="34" y="56" width="6" height="6"/><rect x="42" y="51" width="6" height="6"/></g>
<g fill="#a44b40"><rect x="34" y="55" width="6" height="5"/><rect x="42" y="50" width="6" height="5"/></g>
<g fill="#f4ecd9"><rect x="34" y="55" width="2" height="1"/><rect x="42" y="50" width="2" height="1"/></g>
<g fill="#584b40"><rect x="33" y="65" width="2" height="2"/><rect x="37" y="65" width="2" height="2"/><rect x="41" y="65" width="2" height="2"/></g>
<path fill="#584b40" d="M49 31H57V33H59V43H57V45H49V43H47V33H49Z"/>
<path fill="#d4ad5d" d="M50 33H56V35H57V41H55V43H50V41H49V35H50Z"/>
<rect x="51" y="35" width="2" height="6" fill="#f4ecd9"/>
</svg>
